<svg xmlns="http://www.w3.org/2000/svg" width="39" height="47" viewBox="0 0 39 47"><g><g><path fill="#fff" d="M37.529 12.257c1.356 3.012-.007 6.589-3.039 7.97l-4.713 2.15 7.808 9.132c2.146 2.51 1.829 6.313-.705 8.48a6.128 6.128 0 0 1-1.44.918 6.025 6.025 0 0 1-2.95.526 5.92 5.92 0 0 1-4.098-2.068l-2.032-2.376.435 3.104a6.003 6.003 0 0 1-1.158 4.465 6.057 6.057 0 0 1-3.974 2.37 5.954 5.954 0 0 1-4.461-1.114 5.9 5.9 0 0 1-2.336-3.944l-1.67-11.93-4.713 2.148c-3.031 1.383-6.6.056-7.956-2.956-1.356-3.013.008-6.59 3.039-7.971l5.707-2.603a9.74 9.74 0 0 1-4.153-4.525C2.888 9.072 5.132 3.183 10.124.907S20.993.815 23.225 5.776a9.827 9.827 0 0 1 .64 6.127L29.574 9.3c3.031-1.382 6.6-.056 7.956 2.957zM7.679 30.3l.6-.274a2.461 2.461 0 0 0-1.527-2.8c-1.724-.652-2.799-2.287-2.836-4.035-1.716 1.058-2.432 3.25-1.59 5.119.912 2.027 3.313 2.92 5.353 1.99zm17.165 10.083l-.018-.128a4.37 4.37 0 0 1-.278.14c-1.45.662-3.206.534-4.544-.48-1.034-.783-2.515-.618-3.37.353l.184 1.31a4.01 4.01 0 0 0 4.573 3.403 4.074 4.074 0 0 0 2.674-1.594 4.04 4.04 0 0 0 .779-3.004zm11.238-7.59l-1.019-1.19a2.52 2.52 0 0 0-2.411 2.315c-.125 1.681-1.188 3.094-2.638 3.755-.113.052-.229.097-.346.14l.228.266a3.982 3.982 0 0 0 2.757 1.391 4.063 4.063 0 0 0 2.954-.972c1.705-1.457 1.918-4.016.475-5.705zM27.218 21.82a.996.996 0 0 1 .558-.684l3.555-1.622a4.433 4.433 0 0 1-.923-4.59 2.465 2.465 0 0 0-1.424-3.166l.016-.042-6.401 2.919a.983.983 0 0 1-1.11-.203.979.979 0 0 1-.178-1.113 7.909 7.909 0 0 0 .116-6.723c-1.79-3.975-6.499-5.725-10.499-3.901-4 1.824-5.799 6.542-4.01 10.518a7.822 7.822 0 0 0 5.096 4.345.971.971 0 0 1 .715.869.995.995 0 0 1-.58.974l-6.15 2.804.041.016a2.464 2.464 0 0 0 1.425 3.166 4.407 4.407 0 0 1 2.819 3.726l3.304-1.507a.988.988 0 0 1 .88.028.972.972 0 0 1 .498.72l1.356 9.684c1.508-.849 3.439-.787 4.883.307 1.011.767 2.45.625 3.313-.29l-.579-4.134a.993.993 0 0 1 .574-1.038.98.98 0 0 1 1.154.25l2.544 2.976a2.519 2.519 0 0 0 2.476-2.317c.134-1.793 1.334-3.28 2.933-3.876l-6.193-7.245a.976.976 0 0 1-.209-.85zm8.512-8.743c-.799-1.776-2.742-2.681-4.583-2.252a4.433 4.433 0 0 1 1.106 4.773 2.466 2.466 0 0 0 1.083 3.002l.35-.16c2.04-.93 2.957-3.335 2.044-5.363zm-25.65-3.055a1.1 1.1 0 0 1 1.462.544c.25.554 0 1.21-.559 1.465a1.1 1.1 0 0 1-1.463-.543c-.25-.555 0-1.212.56-1.466zm6.88-3.138a1.1 1.1 0 0 1 1.463.544c.25.555 0 1.21-.559 1.465a1.1 1.1 0 0 1-1.463-.543c-.25-.555 0-1.211.56-1.466zm1.471 11.686a1.1 1.1 0 0 1 1.463.543c.25.555 0 1.211-.558 1.466a1.1 1.1 0 0 1-1.463-.544c-.25-.555 0-1.211.558-1.465zm4.042 8.982a1.1 1.1 0 0 1 1.463.543c.25.555 0 1.211-.559 1.466a1.1 1.1 0 0 1-1.462-.544c-.25-.555 0-1.21.558-1.465zm-2.02-4.492a1.1 1.1 0 0 1 1.462.544c.25.555 0 1.211-.559 1.466a1.1 1.1 0 0 1-1.462-.544c-.25-.555 0-1.211.558-1.466zM17.33 11.864a.974.974 0 0 1 .568 1.264 2.943 2.943 0 0 1-1.537 1.638 2.913 2.913 0 0 1-2.238.084.974.974 0 0 1-.568-1.264.995.995 0 0 1 1.271-.58.96.96 0 0 0 1.232-.561.995.995 0 0 1 1.272-.58z"/></g></g></svg>