<svg xmlns="http://www.w3.org/2000/svg" width="33" height="33" viewBox="0 0 33 33"><g><g><path fill="#555" d="M33 16.5c0 4.407-1.716 8.55-4.833 11.667A16.392 16.392 0 0 1 16.5 33c-4.407 0-8.55-1.717-11.667-4.833A16.391 16.391 0 0 1 0 16.499c0-4.407 1.716-8.55 4.833-11.667A16.393 16.393 0 0 1 16.5 0c4.407 0 8.55 1.717 11.667 4.833A16.392 16.392 0 0 1 33 16.5zm-1.07 0c0-4.122-1.604-7.997-4.519-10.912A15.33 15.33 0 0 0 16.5 1.068a15.33 15.33 0 0 0-10.911 4.52 15.331 15.331 0 0 0-4.52 10.911 15.33 15.33 0 0 0 4.52 10.912 15.33 15.33 0 0 0 10.91 4.52 15.33 15.33 0 0 0 10.912-4.52 15.33 15.33 0 0 0 4.52-10.912zm-1.21 0c0 7.84-6.38 14.218-14.22 14.218-7.84 0-14.22-6.378-14.22-14.219C2.28 8.66 8.66 2.28 16.5 2.28c7.84 0 14.22 6.379 14.22 14.22zm-1.082.534h-2.304a.535.535 0 0 1 0-1.07h2.304c-.274-6.826-5.777-12.328-12.604-12.603v2.305a.534.534 0 1 1-1.069 0V3.36C9.14 3.636 3.636 9.138 3.362 15.965h2.304a.534.534 0 1 1 0 1.07H3.362c.274 6.826 5.777 12.328 12.603 12.603v-2.305a.535.535 0 1 1 1.07 0v2.305c6.826-.275 12.329-5.777 12.603-12.604zM24.29 8.71c.157.156.2.393.11.595l-4.56 10.263a.532.532 0 0 1-.272.272L9.304 24.4a.533.533 0 0 1-.705-.705L13.16 13.43a.537.537 0 0 1 .272-.271l10.263-4.562a.535.535 0 0 1 .595.11zm-14.15 14.15l8.283-3.68-.76-.76a2.247 2.247 0 0 1-3.083-3.083l-.759-.76zm7.536-6.36a1.177 1.177 0 0 0-2.352 0c0 .649.527 1.176 1.176 1.176.648 0 1.176-.527 1.176-1.176zm5.183-6.36l-8.282 3.682.76.759a2.247 2.247 0 0 1 3.083 3.083l.758.759z"/></g></g></svg>